<svg width="120" height="50" viewBox="0 0 120 50" xmlns="http://www.w3.org/2000/svg">
  <g fill="#333">
    <!-- G -->
    <path d="M25.5,15c-5.5,0-10,4.5-10,10s4.5,10,10,10c3,0,5.7-1.3,7.5-3.5l-3-3c-1,1.2-2.7,2-4.5,2c-3.3,0-6-2.7-6-6s2.7-6,6-6c1.8,0,3.4,0.8,4.5,2l3-3C31.2,16.3,28.5,15,25.5,15z"/>
    <!-- L -->
    <path d="M40,15v15h10v-4h-6V15h-4z"/>
    <!-- O -->
    <path d="M60,15c-5.5,0-10,4.5-10,10s4.5,10,10,10s10-4.5,10-10S65.5,15,60,15z M60,31c-3.3,0-6-2.7-6-6s2.7-6,6-6s6,2.7,6,6S63.3,31,60,31z"/>
    <!-- W -->
    <path d="M85,15l-3,12l-3-12h-4l-3,12l-3-12h-4l5,20h4l3-12l3,12h4l5-20H85z"/>
  </g>
  <!-- Beauty Inside text -->
  <text x="60" y="45" font-family="Arial" font-size="8" text-anchor="middle" fill="#666">Beauty Inside</text>
</svg>