<svg width="1511" height="506" viewBox="0 0 1511 506" fill="none" xmlns="http://www.w3.org/2000/svg">
<path d="M1 1C53.7951 84.809 117.385 130.189 205.677 147.065C293.969 163.941 372.068 112.587 471.556 147.065C553.748 175.549 601.987 266.943 661.183 275.672C720.378 284.401 787.583 222.97 868.367 238.429C951.122 254.264 975.331 338.939 1057.99 355.397C1151.64 374.042 1175.88 259.378 1296.78 301.277C1417.68 343.176 1569.69 592.244 1523.53 472.947" stroke="#0D1C17"/>
<path d="M1 1C53.6206 73.0092 117 112 205 126.5C293 141 370.842 96.8763 470 126.5C551.921 150.974 600 229.5 659 237C718 244.5 784.982 191.718 865.5 205C947.981 218.606 972.109 291.359 1054.5 305.5C1147.84 321.52 1172 223 1292.5 259C1413 295 1564.5 509 1518.5 406.5" stroke="#0D1C17"/>
<path d="M67.0729 116.986C67.427 115.671 68.5751 115.671 68.9281 116.986L70.7003 123.593C70.7738 123.866 70.8917 124.102 71.0413 124.275C71.191 124.448 71.3669 124.551 71.55 124.574L76.0644 125.136C76.9748 125.249 77.3339 127.107 76.6268 128.045L73.2584 132.518C73.1101 132.716 72.9993 132.977 72.9389 133.273C72.8786 133.568 72.8712 133.885 72.9176 134.188L73.9594 140.954C74.1759 142.364 73.2412 143.504 72.4684 142.771L68.5103 139.024C68.3556 138.877 68.1797 138.8 68.0005 138.8C67.8214 138.8 67.6454 138.877 67.4907 139.024L63.5326 142.771C62.7598 143.504 61.8251 142.364 62.0416 140.954L63.0835 134.188C63.1294 133.885 63.1216 133.568 63.0609 133.273C63.0002 132.978 62.8891 132.717 62.7406 132.52L59.3722 128.047C58.6661 127.109 59.0262 125.251 59.9356 125.137L64.449 124.575C64.6321 124.553 64.808 124.449 64.9576 124.277C65.1073 124.104 65.2252 123.868 65.2987 123.595L67.0729 116.986Z" stroke="black" stroke-width="2"/>
<path d="M179.302 219C179.885 217.667 181.777 217.667 182.358 219L185.278 225.703C185.399 225.981 185.594 226.22 185.84 226.395C186.087 226.57 186.376 226.675 186.678 226.698L194.117 227.268C195.617 227.383 196.208 229.268 195.043 230.22L189.493 234.758C189.249 234.958 189.066 235.224 188.967 235.524C188.867 235.823 188.855 236.145 188.932 236.452L190.648 243.317C191.005 244.747 189.465 245.903 188.192 245.16L181.67 241.358C181.415 241.21 181.125 241.131 180.83 241.131C180.535 241.131 180.245 241.21 179.99 241.358L173.468 245.16C172.195 245.903 170.655 244.747 171.012 243.317L172.728 236.452C172.804 236.145 172.791 235.823 172.691 235.524C172.591 235.224 172.408 234.959 172.163 234.76L166.613 230.222C165.45 229.27 166.043 227.385 167.542 227.27L174.978 226.7C175.28 226.677 175.57 226.572 175.816 226.397C176.063 226.221 176.257 225.982 176.378 225.705L179.302 219Z" stroke="black" stroke-width="2"/>
<path d="M367.073 191.694C367.427 190.769 368.575 190.769 368.928 191.694L370.7 196.343C370.774 196.536 370.892 196.701 371.041 196.823C371.191 196.945 371.367 197.017 371.55 197.033L376.064 197.429C376.975 197.509 377.334 198.816 376.627 199.476L373.258 202.624C373.11 202.763 372.999 202.947 372.939 203.155C372.879 203.363 372.871 203.586 372.918 203.799L373.959 208.56C374.176 209.552 373.241 210.355 372.468 209.839L368.51 207.202C368.356 207.099 368.18 207.044 368.001 207.044C367.821 207.044 367.645 207.099 367.491 207.202L363.533 209.839C362.76 210.355 361.825 209.552 362.042 208.56L363.083 203.799C363.129 203.586 363.122 203.363 363.061 203.155C363 202.947 362.889 202.764 362.741 202.625L359.372 199.477C358.666 198.817 359.026 197.51 359.936 197.43L364.449 197.035C364.632 197.019 364.808 196.946 364.958 196.824C365.107 196.703 365.225 196.537 365.299 196.344L367.073 191.694Z" stroke="black" stroke-width="2"/>
<path d="M487.302 333C487.885 331.667 489.777 331.667 490.358 333L493.278 339.703C493.399 339.981 493.594 340.22 493.84 340.395C494.087 340.57 494.376 340.675 494.678 340.698L502.117 341.268C503.617 341.383 504.208 343.268 503.043 344.22L497.493 348.758C497.249 348.958 497.066 349.224 496.967 349.524C496.867 349.823 496.855 350.145 496.932 350.452L498.648 357.317C499.005 358.747 497.465 359.903 496.192 359.16L489.67 355.358C489.415 355.21 489.125 355.131 488.83 355.131C488.535 355.131 488.245 355.21 487.99 355.358L481.468 359.16C480.195 359.903 478.655 358.747 479.012 357.317L480.728 350.452C480.804 350.145 480.791 349.823 480.691 349.524C480.591 349.224 480.408 348.959 480.163 348.76L474.613 344.222C473.45 343.27 474.043 341.385 475.542 341.27L482.978 340.7C483.28 340.677 483.57 340.572 483.816 340.397C484.063 340.221 484.257 339.982 484.378 339.705L487.302 333Z" stroke="black" stroke-width="2"/>
<path d="M681.867 305.657C682.3 304.781 683.703 304.781 684.134 305.657L686.3 310.062C686.39 310.244 686.534 310.401 686.717 310.517C686.9 310.632 687.115 310.701 687.339 310.716L692.857 311.09C693.969 311.166 694.408 312.405 693.544 313.03L689.427 316.012C689.246 316.144 689.11 316.318 689.036 316.515C688.963 316.712 688.954 316.924 689.01 317.125L690.284 321.636C690.548 322.576 689.406 323.336 688.461 322.847L683.624 320.349C683.435 320.252 683.22 320.2 683.001 320.2C682.782 320.2 682.567 320.252 682.378 320.349L677.54 322.847C676.595 323.336 675.453 322.576 675.717 321.636L676.991 317.125C677.047 316.924 677.038 316.712 676.963 316.515C676.889 316.319 676.753 316.144 676.572 316.013L672.455 313.031C671.592 312.406 672.032 311.167 673.143 311.092L678.66 310.717C678.884 310.702 679.099 310.633 679.282 310.518C679.465 310.402 679.609 310.245 679.698 310.063L681.867 305.657Z" stroke="black" stroke-width="2"/>
<path d="M878.302 385C878.885 383.667 880.777 383.667 881.358 385L884.278 391.703C884.399 391.981 884.594 392.22 884.84 392.395C885.087 392.57 885.376 392.675 885.678 392.698L893.117 393.268C894.617 393.383 895.208 395.268 894.043 396.22L888.493 400.758C888.249 400.958 888.066 401.224 887.967 401.524C887.867 401.823 887.855 402.145 887.932 402.452L889.648 409.317C890.005 410.747 888.465 411.903 887.192 411.16L880.67 407.358C880.415 407.21 880.125 407.131 879.83 407.131C879.535 407.131 879.245 407.21 878.99 407.358L872.468 411.16C871.195 411.903 869.655 410.747 870.012 409.317L871.728 402.452C871.804 402.145 871.791 401.823 871.691 401.524C871.591 401.224 871.408 400.959 871.163 400.76L865.613 396.222C864.45 395.27 865.043 393.385 866.542 393.27L873.978 392.7C874.28 392.677 874.57 392.572 874.816 392.397C875.063 392.221 875.257 391.982 875.378 391.705L878.302 385Z" stroke="black" stroke-width="2"/>
<path d="M1434.45 449.876C1435.04 448.708 1436.96 448.708 1437.55 449.876L1440.5 455.749C1440.62 455.992 1440.82 456.202 1441.07 456.355C1441.32 456.509 1441.61 456.601 1441.92 456.621L1449.44 457.121C1450.96 457.221 1451.56 458.873 1450.38 459.707L1444.76 463.683C1444.52 463.858 1444.33 464.091 1444.23 464.353C1444.13 464.616 1444.12 464.898 1444.2 465.167L1445.93 471.182C1446.29 472.434 1444.74 473.448 1443.45 472.797L1436.85 469.466C1436.59 469.335 1436.3 469.267 1436 469.267C1435.7 469.267 1435.41 469.335 1435.15 469.466L1428.55 472.797C1427.27 473.448 1425.71 472.434 1426.07 471.182L1427.81 465.167C1427.88 464.898 1427.87 464.616 1427.77 464.354C1427.67 464.091 1427.48 463.859 1427.23 463.685L1421.62 459.708C1420.44 458.874 1421.04 457.223 1422.56 457.122L1430.08 456.623C1430.39 456.602 1430.68 456.51 1430.93 456.357C1431.18 456.203 1431.38 455.994 1431.5 455.751L1434.45 449.876Z" stroke="black" stroke-width="2"/>
<path d="M1141.97 358.73C1142.36 357.757 1143.64 357.757 1144.03 358.73L1146 363.624C1146.08 363.827 1146.21 364.002 1146.38 364.13C1146.55 364.258 1146.74 364.334 1146.94 364.351L1151.96 364.767C1152.97 364.851 1153.37 366.227 1152.59 366.922L1148.84 370.236C1148.68 370.382 1148.55 370.576 1148.49 370.795C1148.42 371.013 1148.41 371.248 1148.46 371.472L1149.62 376.485C1149.86 377.529 1148.82 378.373 1147.96 377.831L1143.57 375.055C1143.4 374.946 1143.2 374.889 1143 374.889C1142.8 374.889 1142.61 374.946 1142.43 375.055L1138.04 377.831C1137.18 378.373 1136.14 377.529 1136.38 376.485L1137.54 371.472C1137.59 371.248 1137.58 371.014 1137.51 370.795C1137.44 370.576 1137.32 370.383 1137.16 370.237L1133.41 366.923C1132.63 366.229 1133.03 364.852 1134.04 364.768L1139.05 364.352C1139.26 364.335 1139.45 364.259 1139.62 364.131C1139.79 364.003 1139.92 363.828 1140 363.626L1141.97 358.73Z" stroke="black" stroke-width="2"/>
</svg>
